<?xml version="1.0" encoding="UTF-8" standalone="no" ?>
<!DOCTYPE svg PUBLIC "-//W3C//DTD SVG 1.1//EN" "http://www.w3.org/Graphics/SVG/1.1/DTD/svg11.dtd">
<svg xmlns="http://www.w3.org/2000/svg" xmlns:xlink="http://www.w3.org/1999/xlink" version="1.1" width="1080" height="500" viewBox="0 0 1080 1080" xml:space="preserve">
<desc>Created with Fabric.js 5.2.4</desc>
<defs>
</defs>
<g transform="matrix(1 0 0 1 540 540)" id="5eb0b8b6-12ab-44e7-916a-596a8ff021ba"  >
<rect style="stroke: none; stroke-width: 1; stroke-dasharray: none; stroke-linecap: butt; stroke-dashoffset: 0; stroke-linejoin: miter; stroke-miterlimit: 4; fill: rgb(255,255,255); fill-rule: nonzero; opacity: 1; visibility: hidden;" vector-effect="non-scaling-stroke"  x="-540" y="-540" rx="0" ry="0" width="1080" height="500" />
</g>
<g transform="matrix(1 0 0 1 540 540)" id="c62636a4-74e6-4393-a7b5-a48f046c60c4"  >
</g>
<g transform="matrix(6.75 0 0 6.75 540 540)"  >
<g style=""   >
		<g transform="matrix(1 0 0 1 -50.87 0)"  >
<path style="stroke: none; stroke-width: 1; stroke-dasharray: none; stroke-linecap: butt; stroke-dashoffset: 0; stroke-linejoin: miter; stroke-miterlimit: 4; fill: rgb(255,255,255); fill-rule: evenodd; opacity: 1;" vector-effect="non-scaling-stroke"  transform=" translate(-29.13, -10)" d="M 39.8294 10.0034 C 39.8331 10.6246 39.7285 11.2418 39.5204 11.8281 C 39.326 12.3261 39.0333 12.7811 38.6592 13.1667 C 38.2886 13.5401 37.8393 13.8288 37.3432 14.0123 C 36.3505 14.3786 35.26 14.3956 34.2561 14.0603 C 33.8126 13.9035 33.4045 13.6627 33.0547 13.3516 C 32.7017 13.0204 32.4082 12.6326 32.1866 12.2047 C 31.9497 11.7161 31.8027 11.1898 31.7525 10.6505 L 30.5371 10.6505 L 30.5371 14.139 L 28.6273 14.139 L 28.6273 5.86443 L 30.5198 5.86443 L 30.5198 9.14755 L 31.7872 9.14755 C 31.8498 8.63144 32.0025 8.12991 32.2387 7.66518 C 32.4571 7.25642 32.753 6.89268 33.1102 6.59363 C 33.4648 6.28758 33.8781 6.05476 34.3256 5.90894 C 34.792 5.75879 35.2795 5.68252 35.7701 5.68299 C 36.3172 5.68242 36.8602 5.77627 37.3744 5.96029 C 37.8642 6.14188 38.3084 6.42566 38.6766 6.79219 C 39.0502 7.18208 39.3428 7.64032 39.5377 8.14105 C 39.7581 8.73136 39.863 9.35749 39.8468 9.98631 L 39.8294 10.0034 Z M 19.9809 9.07566 C 19.9677 9.78408 19.8899 10.4899 19.7482 11.1845 C 19.6715 11.536 19.5134 11.8652 19.2864 12.1465 C 19.2008 12.2504 19.0913 12.3326 18.9669 12.3862 C 18.8438 12.4371 18.7115 12.4627 18.578 12.4615 L 18.3245 12.4615 L 18.3245 14.1732 L 18.8385 14.1732 C 19.3746 14.1962 19.9019 14.0326 20.3281 13.7111 C 20.7381 13.3613 21.0371 12.9025 21.1893 12.3896 C 21.42 11.7036 21.5612 10.9915 21.6095 10.2705 C 21.6685 9.43855 21.731 8.46628 21.731 7.37419 L 24.2034 7.37419 L 24.2034 14.1219 L 26.1028 14.1219 L 26.1028 5.84731 L 20.026 5.84731 C 20.026 7.13112 20.0087 8.21636 19.9809 9.07566 Z M 17.0189 5.86443 L 9.78577 5.86443 L 9.78577 14.139 L 11.6713 14.139 L 11.6713 7.36049 L 15.0952 7.36049 L 15.0952 14.139 L 17.0015 14.139 L 17.0189 5.86443 Z M 43.9998 13.9884 C 44.5814 14.1976 45.197 14.2997 45.8159 14.2896 C 46.3584 14.3076 46.9005 14.2441 47.4237 14.1013 C 47.7957 13.9861 48.1516 13.8251 48.4828 13.622 L 48.4828 12.1123 C 48.1351 12.3075 47.7657 12.4626 47.382 12.5745 C 46.9134 12.7055 46.428 12.7689 45.9409 12.7628 C 44.2209 12.7628 43.3609 11.843 43.3609 10.0034 C 43.3609 8.16387 44.2394 7.24181 45.9965 7.23725 C 46.4659 7.22895 46.9339 7.28893 47.3855 7.41527 C 47.7639 7.5273 48.124 7.69216 48.455 7.90483 L 48.455 6.38138 C 48.1398 6.16039 47.787 5.99691 47.4133 5.89866 C 46.9088 5.76882 46.3894 5.70324 45.868 5.70353 C 45.2326 5.70049 44.6012 5.80232 43.9998 6.00479 C 43.4767 6.17855 43.0013 6.46911 42.6109 6.85382 C 42.2194 7.23098 41.916 7.68779 41.7219 8.1924 C 41.3053 9.36246 41.3053 10.6375 41.7219 11.8076 C 41.9159 12.3132 42.2193 12.7712 42.6109 13.1496 C 43.0034 13.5293 43.4784 13.8162 43.9998 13.9884 L 43.9998 13.9884 Z M 35.7701 12.7696 C 36.0565 12.7689 36.3398 12.7119 36.6035 12.6018 C 36.8717 12.4882 37.1094 12.3148 37.298 12.0952 C 37.6907 11.4674 37.8987 10.7444 37.8987 10.0068 C 37.8987 9.2693 37.6907 8.54627 37.298 7.91852 C 37.0045 7.59809 36.616 7.37701 36.1878 7.28667 C 35.7595 7.19632 35.3133 7.24132 34.9124 7.41527 C 34.6467 7.52989 34.4097 7.70049 34.2179 7.9151 C 33.8317 8.54573 33.6275 9.26843 33.6275 10.0051 C 33.6275 10.7418 33.8317 11.4645 34.2179 12.0952 C 34.4097 12.3098 34.6467 12.4804 34.9124 12.595 C 35.1744 12.7104 35.4589 12.7677 35.7458 12.7628 L 35.7458 12.7628 L 35.7701 12.7696 Z M 57.7334 10.0034 C 57.7334 5.83362 57.7334 3.74872 56.6639 2.29031 C 56.3112 1.8173 55.8845 1.40246 55.3999 1.06128 C 53.9276 0 51.8337 0 47.6216 0 L 10.6226 0 C 6.41749 0 4.32013 0 2.84781 1.06128 C 2.36866 1.40419 1.94687 1.81888 1.59773 2.29031 C 0.535156 3.76583 0.535156 5.81992 0.535156 10.0034 C 0.535156 14.1869 0.535156 16.2547 1.59773 17.7131 C 1.9477 18.1848 2.36935 18.6005 2.84781 18.9456 C 4.32013 20 6.41749 20 10.6226 20 L 47.6216 20 C 51.8337 20 53.9276 20 55.4069 18.9456 C 55.8821 18.6003 56.3003 18.1845 56.6465 17.7131 C 57.716 16.2547 57.716 14.1664 57.716 10.0034 L 57.7334 10.0034 Z" stroke-linecap="round" />
</g>
		<g transform="matrix(1 0 0 1 28.37 0.24)"  >
<path style="stroke: none; stroke-width: 1; stroke-dasharray: none; stroke-linecap: butt; stroke-dashoffset: 0; stroke-linejoin: miter; stroke-miterlimit: 4; fill: rgb(255,255,255); fill-rule: evenodd; opacity: 1;" vector-effect="non-scaling-stroke"  transform=" translate(-108.37, -10.24)" d="M 136.358 1.79146 L 129.441 18.7925 L 123.173 18.7925 L 125.069 14.1263 C 117.902 15.9099 111.575 11.5724 114.256 5.18414 L 115.645 1.78119 L 121.895 1.78119 L 120.336 5.46828 C 118.02 10.7199 126.549 10.5042 128.132 6.61515 L 130.122 1.79146 L 136.358 1.79146 Z M 96.9215 15.0267 C 98.2112 15.0303 99.4862 14.7565 100.657 14.2244 C 101.829 13.6922 102.868 12.9145 103.703 11.9455 C 101.714 11.9455 95.0013 12.3221 95.1298 14.0989 C 95.168 14.6843 95.6437 15.0267 96.9215 15.0267 Z M 113.242 13.9996 L 111.297 18.7925 C 108.992 18.8918 105.481 19.015 104.259 17.1698 C 100.217 19.9085 87.0563 20.7096 88.8411 13.6162 C 90.1503 8.39536 99.3036 8.1386 105.113 7.71751 C 105.776 4.86575 98.4494 4.86233 97.4945 7.54634 L 91.4212 7.70382 C 92.765 3.04446 97.6785 1.36353 102.297 1.33271 C 111.631 1.2574 111.867 7.42652 109.721 12.5617 C 108.974 14.342 111.815 13.9996 113.239 13.9996 L 113.242 13.9996 Z M 77.9272 13.9996 L 80.9517 6.56038 L 75.2465 6.56038 C 73.8818 9.37448 71.9442 12.7432 69.6906 13.9996 L 77.9272 13.9996 Z M 142.751 15.0267 C 144.041 15.0303 145.316 14.7565 146.487 14.2244 C 147.658 13.6922 148.698 12.9145 149.533 11.9455 C 147.543 11.9455 140.834 12.3221 140.959 14.0989 C 140.997 14.6843 141.473 15.0267 142.751 15.0267 Z M 159.071 13.9996 L 157.127 18.7925 C 154.821 18.8918 151.311 19.015 150.088 17.1698 C 146.05 19.9085 132.886 20.7096 134.671 13.6162 C 135.983 8.39536 145.137 8.1386 150.946 7.71751 C 151.606 4.86575 144.282 4.86233 143.324 7.54634 L 137.251 7.70382 C 138.594 3.04446 143.508 1.36353 148.126 1.33271 C 157.46 1.2574 157.696 7.42652 155.55 12.5617 C 154.811 14.342 157.644 13.9996 159.068 13.9996 L 159.071 13.9996 Z M 84.0665 13.9996 L 87.3237 13.9996 L 85.3444 18.7925 L 57.6689 18.7925 L 59.6135 13.9996 C 65.6174 13.9517 69.8989 7.34093 71.34 1.79146 L 89.0495 1.79146 L 84.0665 13.9996 Z" stroke-linecap="round" />
</g>
</g>
</g>
</svg>